<?xml version="1.0" standalone="no"?>
<!DOCTYPE svg PUBLIC "-//W3C//DTD SVG 20010904//EN"
 "http://www.w3.org/TR/2001/REC-SVG-20010904/DTD/svg10.dtd">
<svg version="1.0" xmlns="http://www.w3.org/2000/svg"
 width="130.000000pt" height="130.000000pt" viewBox="0 0 130.000000 130.000000"
 preserveAspectRatio="xMidYMid meet">
<metadata>
Created by potrace 1.14, written by Peter Selinger 2001-2017
</metadata>
<g transform="translate(0.000000,130.000000) scale(0.100000,-0.100000)"
fill="#000000" stroke="none">
<path d="M341 1193 c-40 -20 -102 -116 -279 -433 -7 -14 -24 -43 -37 -64 l-24
-40 37 -69 37 -69 56 4 c99 7 97 5 312 378 74 129 145 252 157 273 l22 37
-124 0 c-94 0 -131 -4 -157 -17z"/>
<path d="M865 1203 c-44 -9 -79 -57 -221 -303 -299 -521 -295 -515 -336 -536
-18 -9 -52 -18 -76 -18 -23 -1 -42 -5 -43 -9 0 -4 30 -61 67 -127 65 -116 68
-118 105 -122 47 -4 93 11 124 40 19 19 94 144 358 602 11 19 30 53 42 75 13
22 55 94 94 160 l70 120 -34 60 c-33 60 -33 60 -82 61 -26 1 -57 0 -68 -3z"/>
<path d="M1034 709 c-60 -105 -123 -217 -141 -248 -46 -82 -88 -113 -157 -115
-31 0 -56 -2 -56 -3 0 -3 141 -247 145 -251 10 -11 98 -1 126 14 43 22 44 23
136 184 42 74 84 146 93 160 9 14 30 50 47 80 17 30 40 71 51 90 l21 35 -70
120 c-38 66 -73 121 -77 123 -5 1 -57 -84 -118 -189z"/>
</g>
</svg>
