<?xml version="1.0" encoding="UTF-8"?><svg id="Layer_2" xmlns="http://www.w3.org/2000/svg" viewBox="0 0 487.1 111.99"><defs><style>.cls-1{fill:#fff;}.cls-2{fill:#c5000c;}</style></defs><g id="Calque_1"><g><g><path class="cls-1" d="M224.29,91.74h-9.97l-17.43-58.59-17.32,58.59h-9.97l-20.89-72.55h10.71l15.64,57.12,16.69-57.12h10.39l16.69,57.12,15.64-57.12h10.71l-20.89,72.55Z"/><path class="cls-1" d="M295.8,69.07h-38.43c.52,9.87,6.82,15.85,16.06,15.85s15.33-5.04,16.48-5.78l4.2,5.78c-.63,.52-7.03,7.87-21.94,7.87s-24.99-10.29-24.99-26.14,11.44-25.83,25.3-25.83,23.62,9.87,23.62,23.83c0,1.89-.31,4.41-.31,4.41Zm-23.62-21c-9.97,0-14.38,8.29-14.7,14.28h29.08c-.1-5.56-4.3-14.28-14.38-14.28Z"/><path class="cls-1" d="M321.21,92.79c-12.5,0-13.12-10.29-13.12-20.05v-22.78h-7.35v-8.08h7.35v-14.91h10.08v14.91h11.97v8.08h-11.97v22.57c0,4.2,.1,7.03,1.26,9.13,.94,1.57,2.31,2.52,5.14,2.52s5.14-1.16,5.14-1.16l.63,8.08c-2.62,1.16-5.67,1.68-9.13,1.68Z"/><path class="cls-1" d="M367.72,91.64l-.1-6.3c-2,2.1-6.72,7.45-15.85,7.45s-17.22-5.77-17.22-15.43,7.98-14.7,19.53-15.22l13.33-.53v-2c0-7.56-5.15-11.34-12.39-11.34s-13.33,3.25-15.01,4.3l-3.04-6.72c3.67-2.1,10.39-5.04,18.69-5.04,14.59,0,21.84,7.35,21.84,21.84v28.98h-9.76Zm-11.86-23.2c-8.08,.42-11.34,3.88-11.34,8.61s3.67,8.61,10.29,8.61,10.81-4.41,12.7-7.24v-10.71l-11.65,.74Z"/><path class="cls-1" d="M423.79,91.64l-17.11-24.15-5.77,5.46v18.69h-9.97V19.19h9.97V61.72l20.37-19.95h11.76l-19.53,18.79,22.05,31.08h-11.76Z"/><path class="cls-1" d="M486.79,69.07h-38.43c.53,9.87,6.83,15.85,16.06,15.85s15.33-5.04,16.48-5.78l4.2,5.78c-.63,.52-7.04,7.87-21.94,7.87s-24.99-10.29-24.99-26.14,11.44-25.83,25.3-25.83,23.62,9.87,23.62,23.83c0,1.89-.32,4.41-.32,4.41Zm-23.62-21c-9.97,0-14.38,8.29-14.7,14.28h29.08c-.11-5.56-4.31-14.28-14.38-14.28Z"/></g><g><path class="cls-2" d="M0,55.34L27.64,7.37c2.63-4.56,7.48-7.37,12.74-7.37h21.03L26,61.34c-2.63,4.55-7.48,7.35-12.74,7.35H7.43L0,55.34Z"/><path class="cls-2" d="M17.77,86.59h5.88c5.25,0,10.11-2.8,12.74-7.35L77.9,7.35c2.63-4.55,7.48-7.35,12.74-7.35h6.63l7.05,12.21L50.95,104.63c-2.63,4.55-7.48,7.35-12.74,7.35h-5.78l-14.66-25.39Z"/><path class="cls-2" d="M114.67,30.16l14.57,25.23-28.37,49.23c-2.63,4.56-7.48,7.36-12.74,7.36h-5.77l-14.66-25.39h6.06c5.27,0,10.13-2.82,12.75-7.38l28.16-49.05Z"/></g></g></g></svg>